<?xml version="1.0" standalone="no"?>
<!DOCTYPE svg PUBLIC "-//W3C//DTD SVG 20010904//EN"
 "http://www.w3.org/TR/2001/REC-SVG-20010904/DTD/svg10.dtd">
<svg version="1.0" xmlns="http://www.w3.org/2000/svg"
 width="316.000000pt" height="316.000000pt" viewBox="0 0 316.000000 316.000000"
 preserveAspectRatio="xMidYMid meet">
<metadata>
Created by potrace 1.14, written by Peter Selinger 2001-2017
</metadata>
<g transform="translate(0.000000,316.000000) scale(0.100000,-0.100000)"
fill="#000000" stroke="none">
<path d="M1544 2438 c-8 -12 -13 -195 -6 -215 2 -7 11 -13 19 -13 8 0 11 -5 7
-12 -5 -7 -3 -8 7 -2 22 13 40 14 32 1 -4 -7 1 -6 10 2 14 11 17 11 17 0 0 -9
5 -6 12 5 13 22 15 188 4 224 -7 20 -10 21 -24 10 -12 -10 -14 -10 -8 0 8 14
-19 12 -43 -2 -10 -6 -12 -5 -7 2 4 7 3 12 -3 12 -5 0 -13 -5 -17 -12z"/>
<path d="M1175 2400 c-3 -6 -19 -10 -35 -10 -15 0 -30 -6 -32 -12 -8 -21 3
-88 15 -88 6 0 7 -3 4 -7 -4 -3 -2 -12 4 -20 9 -10 8 -13 -2 -13 -8 0 -6 -6 7
-16 10 -8 13 -12 5 -8 -11 6 -13 3 -7 -12 5 -10 11 -28 14 -39 7 -27 21 -35
46 -26 12 5 29 7 39 6 9 -2 17 1 17 6 0 5 7 9 15 9 8 0 15 5 15 11 0 5 -4 8
-8 5 -5 -3 -8 5 -7 17 1 12 0 27 -4 32 -3 6 -6 16 -7 23 -2 8 -6 21 -10 30 -4
9 -7 26 -8 37 -1 11 -5 26 -9 33 -5 6 -6 15 -4 20 5 8 -13 26 -30 29 -7 2 -15
-2 -18 -7z"/>
<path d="M1993 2399 c-13 -5 -24 -15 -24 -24 -2 -24 -4 -29 -12 -42 -5 -7 -5
-17 -2 -23 3 -5 2 -10 -3 -10 -5 0 -9 -12 -8 -27 0 -16 -4 -27 -9 -26 -6 1
-10 -15 -10 -35 0 -29 5 -40 24 -50 13 -7 26 -10 29 -7 3 2 11 -3 19 -13 8 -9
12 -11 8 -5 -4 8 -1 11 9 7 10 -4 17 2 22 20 3 14 9 26 13 26 4 0 8 11 9 25 3
50 6 55 21 55 13 0 13 2 3 9 -15 9 -15 20 0 39 6 6 7 12 4 12 -4 0 -2 9 4 20
8 14 8 20 0 20 -6 0 -9 4 -6 8 2 4 -7 9 -21 10 -14 1 -31 6 -37 11 -6 5 -21 5
-33 0z"/>
<path d="M747 2246 c-8 -8 -17 -13 -20 -10 -3 3 -15 -4 -26 -15 -17 -17 -18
-23 -7 -33 7 -7 11 -19 8 -26 -2 -6 1 -12 7 -12 6 0 10 -6 9 -12 -2 -7 3 -12
11 -10 9 2 12 -4 8 -18 -3 -11 0 -23 5 -27 7 -4 8 -1 4 8 -4 8 0 5 8 -6 9 -11
14 -25 12 -32 -3 -7 0 -12 6 -10 7 1 12 -7 13 -18 0 -24 46 -50 57 -32 4 7 8
8 8 2 0 -5 10 1 21 15 11 14 17 18 13 10 -4 -8 2 -6 13 5 11 11 16 22 11 23
-4 2 -6 8 -2 13 3 5 0 9 -6 9 -6 0 -8 5 -5 10 3 6 1 10 -6 10 -7 0 -9 3 -6 6
4 4 -3 15 -15 25 -14 13 -17 19 -7 19 10 1 9 4 -4 11 -9 6 -15 14 -12 20 4 5
1 9 -4 9 -6 0 -11 9 -11 21 0 11 -4 17 -10 14 -9 -6 -14 8 -11 28 0 4 -3 7 -8
7 -5 0 -16 3 -24 6 -8 3 -21 -2 -30 -10z"/>
<path d="M2388 2236 c-7 -11 -11 -24 -10 -28 1 -5 -2 -8 -8 -8 -5 0 -10 -7
-10 -15 0 -8 -4 -15 -9 -15 -5 0 -14 -12 -20 -27 -5 -16 -18 -40 -27 -54 -16
-25 -14 -80 4 -78 21 4 31 -3 29 -20 -1 -17 -4 -18 -22 -8 -11 6 -23 10 -27 9
-5 -1 -8 3 -8 8 0 6 -7 10 -15 10 -8 0 -15 5 -15 11 0 5 -4 7 -10 4 -5 -3 -10
-1 -10 5 0 6 -4 8 -10 5 -5 -3 -10 -1 -10 6 0 7 -3 10 -6 6 -4 -3 -28 5 -55
19 -27 13 -51 24 -54 24 -30 -1 -35 1 -29 12 5 8 2 9 -10 5 -10 -4 -23 -4 -29
0 -7 4 -14 8 -17 9 -3 0 -12 3 -20 7 -18 7 -69 16 -127 24 -24 3 -43 8 -43 12
0 8 -65 12 -228 14 -67 1 -122 -1 -122 -4 0 -3 -18 -4 -41 -2 -22 2 -39 1 -36
-4 3 -4 -14 -9 -36 -10 -50 -3 -69 -6 -82 -15 -6 -3 -27 -5 -47 -4 -20 0 -36
-3 -35 -8 2 -11 -53 -27 -66 -19 -6 4 -7 1 -2 -7 6 -10 4 -12 -8 -7 -10 3 -17
3 -17 -2 0 -8 -28 -19 -69 -27 -8 -1 -17 -8 -21 -15 -4 -6 -13 -8 -19 -5 -6 4
-14 0 -17 -8 -3 -9 -14 -16 -24 -16 -11 0 -22 -5 -25 -10 -4 -6 -11 -8 -16 -5
-5 4 -9 1 -9 -4 0 -6 -18 -18 -39 -27 -22 -8 -42 -22 -45 -30 -3 -8 -12 -14
-19 -14 -8 0 -22 -9 -32 -20 -10 -11 -23 -20 -29 -20 -7 0 -18 -9 -26 -19 -7
-11 -17 -18 -22 -15 -4 3 -8 -2 -8 -10 0 -9 -3 -15 -8 -14 -4 1 -20 -10 -36
-25 -16 -14 -33 -24 -38 -21 -4 3 -7 0 -6 -8 2 -7 -3 -12 -10 -10 -6 1 -12 -5
-12 -14 0 -8 -4 -13 -9 -10 -5 3 -11 -3 -14 -15 -3 -12 0 -22 9 -26 8 -3 14
-11 14 -19 0 -8 7 -14 16 -14 8 0 12 -4 9 -10 -3 -5 1 -10 9 -10 9 0 16 -5 16
-12 0 -6 9 -1 20 12 11 13 20 20 20 17 0 -4 10 4 23 16 13 12 22 25 20 30 -4
6 12 11 30 8 7 -1 11 15 8 32 -1 5 3 6 9 2 5 -3 23 7 39 24 16 16 32 27 35 24
3 -4 6 0 6 7 0 7 3 11 6 8 3 -3 17 5 31 18 14 13 29 21 33 19 4 -3 11 2 14 11
3 8 10 12 16 9 5 -3 10 -2 10 4 0 5 10 13 22 17 13 4 29 14 36 23 10 12 12 12
6 1 -6 -12 -4 -13 7 -2 7 6 21 12 31 12 10 0 18 7 18 16 0 8 4 13 9 10 5 -4
20 -2 33 3 12 5 27 9 31 9 4 0 18 7 30 15 12 8 30 13 40 11 9 -1 17 1 17 5 0
4 6 8 13 9 6 0 23 3 37 7 14 4 33 7 43 7 9 -1 15 3 13 7 -3 4 8 6 25 5 16 -1
32 3 35 8 4 6 10 5 15 -3 5 -9 9 -10 9 -2 0 6 13 10 30 9 17 -1 30 1 30 5 0 4
9 6 20 4 11 -2 22 1 26 7 4 7 9 6 14 -1 5 -8 14 -9 33 -2 17 7 27 7 27 1 0
-12 22 -9 32 5 5 6 8 5 8 -4 0 -10 3 -11 14 -2 10 9 16 9 21 1 4 -6 14 -10 23
-9 35 3 63 -1 58 -9 -6 -10 30 -9 40 1 4 3 14 3 23 -2 9 -5 26 -7 39 -6 12 1
22 -3 22 -8 0 -5 6 -7 14 -4 8 3 17 3 21 -1 7 -7 13 -9 46 -11 11 0 18 -4 16
-8 -3 -5 6 -9 19 -9 13 -1 32 -5 42 -9 9 -5 26 -10 37 -12 11 -2 24 -8 29 -13
6 -6 18 -10 29 -10 10 0 16 -4 13 -8 -2 -4 5 -9 17 -9 12 -1 23 -7 25 -13 2
-5 9 -10 16 -10 8 0 25 -9 39 -20 14 -11 32 -20 41 -20 9 0 16 -4 16 -10 0 -5
7 -10 15 -10 8 0 15 -4 15 -10 0 -5 7 -10 15 -10 8 0 15 -4 15 -10 0 -5 7 -10
15 -10 8 0 15 -4 15 -8 0 -5 12 -14 26 -20 15 -7 22 -17 18 -24 -4 -6 -3 -8 4
-4 6 3 15 -2 21 -11 6 -10 11 -15 11 -12 0 4 22 -16 49 -42 37 -36 55 -47 68
-42 23 9 43 28 43 43 0 6 4 9 8 6 4 -2 8 3 9 13 2 20 -49 81 -67 81 -6 0 -9 3
-7 8 3 4 -1 12 -8 19 -11 10 -15 10 -18 0 -4 -8 -6 -7 -6 3 -1 8 -15 24 -31
35 -16 11 -30 23 -30 28 0 4 -9 7 -21 7 -11 0 -18 3 -16 8 4 8 -29 43 -36 36
-9 -9 -58 47 -51 58 5 8 9 6 14 -7 6 -17 7 -17 13 -1 4 10 12 14 18 10 8 -4 9
-3 5 4 -4 7 -2 12 4 12 7 0 10 6 8 12 -3 7 5 21 16 31 12 10 14 16 6 12 -8 -4
-6 1 4 9 11 9 16 16 10 16 -5 0 0 7 10 15 11 8 16 15 11 15 -4 0 0 9 10 20 10
11 15 20 11 20 -4 0 0 7 8 16 20 19 20 33 1 40 -8 4 -12 10 -9 15 3 5 -2 6
-10 3 -9 -4 -18 0 -22 9 -8 22 -53 18 -66 -7z"/>
<path d="M390 2008 c0 -6 -7 -8 -15 -4 -8 3 -14 2 -12 -3 1 -4 -11 -19 -28
-34 -16 -14 -24 -27 -17 -27 6 0 12 -7 12 -15 0 -8 7 -15 16 -15 8 0 13 -3 11
-7 -3 -5 1 -14 9 -21 8 -7 14 -9 15 -5 0 4 4 -2 10 -15 5 -13 13 -20 19 -17 5
3 10 2 10 -3 0 -4 23 -32 50 -60 28 -29 50 -49 50 -44 0 4 13 16 29 27 16 10
27 23 25 27 -3 4 0 8 5 8 6 0 11 11 11 25 0 17 -6 25 -17 25 -9 0 -14 3 -10 6
8 8 -16 33 -25 27 -5 -2 -8 3 -8 11 0 9 -7 16 -16 16 -8 0 -13 4 -9 9 3 5 -4
12 -15 16 -11 3 -20 12 -20 20 0 8 -9 17 -20 20 -11 3 -20 12 -20 20 0 7 -9
15 -20 18 -11 3 -20 1 -20 -5z"/>
<path d="M2763 2010 c1 -3 -13 -23 -30 -44 -18 -20 -33 -34 -33 -32 0 3 -10
-5 -23 -17 -13 -12 -22 -24 -21 -25 2 -2 -13 -17 -32 -34 -33 -29 -33 -30 -18
-59 8 -16 19 -27 24 -24 6 4 7 -1 3 -11 -4 -11 -3 -15 5 -10 6 3 14 2 17 -4 5
-8 12 -7 23 2 13 11 14 11 7 -2 -8 -13 -7 -13 8 -1 10 8 15 16 13 18 -7 7 18
32 27 26 4 -2 7 1 7 6 0 6 7 11 16 11 10 0 14 6 10 15 -3 8 0 15 7 15 7 0 19
9 27 20 8 11 20 20 27 20 7 0 12 3 11 8 -2 4 7 18 20 32 l22 24 -37 37 c-31
30 -41 35 -52 26 -9 -8 -12 -8 -8 -1 3 6 0 11 -8 11 -8 0 -13 -3 -12 -7z"/>
<path d="M1494 1993 c5 -9 -3 -13 -26 -14 -54 -3 -92 -7 -118 -14 -14 -3 -37
-8 -51 -9 -14 -2 -34 -8 -45 -13 -10 -6 -27 -9 -36 -8 -10 2 -18 -1 -18 -6 0
-6 -4 -8 -9 -4 -5 3 -12 1 -16 -5 -4 -6 -11 -8 -16 -5 -5 4 -9 1 -9 -5 0 -6
-4 -9 -9 -5 -5 3 -12 1 -16 -5 -4 -6 -11 -8 -16 -5 -5 4 -9 1 -9 -5 0 -6 -4
-8 -10 -5 -5 3 -10 1 -10 -5 0 -6 -4 -8 -10 -5 -5 3 -10 1 -10 -4 0 -6 -3 -10
-7 -9 -5 1 -18 -3 -30 -10 -13 -7 -23 -10 -23 -6 0 4 -8 -2 -17 -12 -10 -11
-35 -28 -55 -37 -21 -10 -38 -22 -38 -27 0 -5 -9 -12 -20 -15 -19 -6 -37 -20
-95 -76 -12 -10 -27 -19 -35 -19 -7 0 -11 -3 -8 -6 8 -8 -37 -54 -53 -54 -11
0 -11 -2 1 -10 8 -5 11 -10 7 -10 -4 0 -3 -9 3 -20 6 -11 14 -19 18 -16 9 5
32 -20 25 -28 -4 -3 -2 -6 3 -7 5 0 17 -2 27 -4 9 -2 14 1 11 7 -3 5 4 12 16
15 13 3 19 11 16 19 -3 8 1 14 9 14 7 0 17 5 21 12 5 7 3 8 -6 3 -9 -5 -11 -4
-6 3 4 7 16 12 27 12 11 0 17 5 14 10 -3 6 -2 10 3 10 4 0 19 10 32 23 14 12
28 21 33 19 4 -1 10 5 13 13 4 8 12 15 20 15 8 0 14 5 14 10 0 6 7 10 15 10 8
0 15 5 15 11 0 5 4 8 10 4 5 -3 18 3 29 14 13 13 21 16 25 8 2 -7 5 -4 5 6 1
10 6 15 11 12 6 -3 17 1 26 9 9 9 20 14 25 10 5 -3 12 2 15 10 3 9 10 16 16
16 5 0 6 -6 3 -12 -4 -7 0 -5 8 4 8 10 17 15 20 11 4 -3 15 0 24 9 10 8 34 14
55 14 20 -1 34 2 31 7 -4 7 3 9 54 11 17 1 35 5 40 10 5 5 2 6 -7 1 -8 -5 -12
-5 -8 0 4 4 47 9 95 11 48 3 93 6 100 9 6 2 14 -1 17 -8 3 -9 5 -9 5 0 1 7 7
10 15 7 7 -3 44 -7 82 -8 38 -2 76 -6 84 -9 8 -4 29 -8 45 -11 17 -2 32 -5 35
-6 3 -1 8 -2 13 -1 4 0 7 -3 7 -9 0 -5 7 -7 15 -4 8 4 21 2 28 -4 7 -6 24 -12
37 -14 14 -2 35 -10 48 -16 12 -7 28 -10 34 -6 7 4 8 3 4 -4 -5 -8 0 -12 13
-12 12 0 21 -5 21 -11 0 -5 5 -7 10 -4 6 3 10 2 10 -3 0 -6 10 -12 23 -16 12
-3 32 -14 44 -25 11 -11 24 -17 27 -14 3 4 6 1 6 -6 0 -7 4 -10 8 -7 5 3 14
-4 22 -14 8 -10 17 -17 22 -14 4 3 11 -2 14 -10 3 -9 11 -16 16 -16 6 0 24
-13 40 -30 15 -16 33 -30 39 -30 5 0 8 -4 4 -9 -3 -5 4 -12 15 -16 11 -3 20
-12 20 -20 0 -7 7 -16 16 -19 22 -8 26 -8 19 3 -3 5 4 12 15 16 11 4 18 10 15
15 -3 5 4 11 14 15 13 4 18 11 14 22 -5 12 -3 14 8 8 16 -10 -19 34 -41 51 -8
7 -29 25 -45 40 -17 16 -45 40 -64 54 -18 14 -39 31 -47 39 -8 7 -17 11 -21 8
-3 -3 -15 4 -27 16 -11 12 -28 23 -36 25 -8 2 -17 8 -18 13 -2 5 -8 7 -13 3
-5 -3 -9 0 -9 5 0 6 -7 11 -16 11 -8 0 -22 7 -31 15 -8 8 -19 13 -24 10 -5 -4
-9 -1 -9 4 0 6 -9 11 -19 11 -11 0 -26 6 -33 13 -7 8 -18 12 -24 10 -7 -2 -19
3 -27 11 -12 12 -17 13 -20 3 -4 -9 -6 -9 -6 1 -1 7 -6 10 -11 7 -6 -4 -17 -2
-25 5 -7 6 -29 12 -49 13 -20 1 -36 5 -36 8 0 6 0 6 -85 13 -66 6 -105 13
-112 20 -3 2 -18 0 -34 -4 -18 -5 -31 -5 -35 2 -4 6 -10 5 -15 -3 -6 -9 -9
-10 -9 -2 0 8 -9 9 -29 3 -19 -5 -33 -4 -41 3 -10 9 -11 9 -6 0z"/>
<path d="M1450 1798 c0 -4 -8 -7 -17 -7 -38 1 -91 -9 -113 -21 -18 -10 -21
-10 -14 2 6 10 5 11 -7 1 -8 -6 -18 -12 -24 -13 -5 -1 -20 -6 -31 -10 -12 -5
-30 -10 -40 -12 -11 -2 -25 -9 -33 -16 -7 -7 -20 -11 -28 -8 -8 3 -11 1 -8 -4
3 -6 -3 -10 -14 -10 -12 0 -21 -4 -21 -9 0 -8 -37 -24 -52 -22 -5 1 -8 -4 -8
-11 0 -6 -3 -8 -7 -5 -3 4 -13 -2 -20 -13 -8 -11 -18 -18 -23 -15 -5 3 -16 -5
-24 -17 -9 -12 -16 -19 -16 -15 0 7 -28 -14 -66 -51 -13 -12 -27 -22 -31 -22
-5 0 -8 -4 -8 -10 0 -5 -4 -10 -8 -9 -5 0 -15 -8 -22 -18 -11 -15 -11 -22 3
-45 9 -16 20 -28 25 -28 4 0 5 -6 1 -12 -4 -7 -4 -10 1 -6 4 4 14 3 21 -3 14
-12 54 4 54 22 0 6 5 7 12 3 6 -4 8 -3 5 3 -4 6 7 21 24 34 17 13 40 33 50 43
10 11 19 16 19 11 0 -4 8 2 19 13 10 12 21 19 25 15 3 -3 6 -1 6 6 0 7 4 10 9
7 5 -3 14 1 21 9 7 8 19 15 26 15 8 0 14 5 14 10 0 6 9 10 20 10 11 0 20 5 20
10 0 6 9 10 19 10 11 0 23 5 26 10 4 6 11 8 16 5 5 -4 9 -1 9 6 0 7 3 10 6 7
3 -4 20 -1 37 6 18 7 39 12 47 11 8 0 17 3 20 7 3 3 17 8 32 10 15 2 30 7 34
11 4 3 15 2 25 -3 10 -6 20 -6 23 -2 12 19 226 18 226 -1 0 -5 7 -4 15 3 9 8
15 8 15 2 0 -6 13 -10 29 -10 15 1 34 -3 42 -7 7 -5 27 -10 43 -12 17 -2 35
-8 40 -13 6 -6 20 -10 32 -10 13 0 39 -9 58 -21 20 -11 44 -22 53 -24 10 -1
17 -8 15 -14 -1 -6 1 -10 5 -9 14 4 53 -13 53 -23 0 -5 9 -9 20 -9 11 0 20 -7
20 -16 0 -8 5 -12 10 -9 6 3 10 1 10 -4 0 -6 5 -11 10 -11 6 0 22 -11 36 -25
14 -14 29 -25 35 -25 6 0 7 -4 4 -10 -3 -5 1 -10 10 -10 8 0 18 -6 21 -14 11
-28 33 -24 74 14 35 32 40 41 26 46 -9 3 -16 10 -16 14 0 12 -58 68 -64 62 -3
-3 -8 3 -12 12 -3 9 -13 16 -21 16 -8 0 -11 5 -8 10 3 6 0 10 -8 10 -7 0 -23
9 -35 20 -12 11 -26 20 -32 20 -5 0 -10 5 -10 11 0 5 -5 7 -10 4 -6 -3 -13 1
-16 9 -3 9 -10 13 -15 10 -5 -3 -9 0 -9 6 0 7 -7 10 -15 6 -8 -3 -18 0 -22 7
-5 7 -19 18 -32 25 -19 11 -22 11 -15 0 4 -7 -5 -2 -21 12 -16 14 -25 18 -21
10 7 -13 6 -13 -6 0 -7 8 -24 16 -38 18 -13 1 -27 6 -30 10 -3 4 -12 7 -20 7
-8 -1 -24 3 -35 9 -17 8 -44 13 -117 19 -10 1 -18 4 -18 7 0 3 -65 5 -145 5
-80 1 -145 -3 -145 -7z"/>
<path d="M1585 1178 c-4 -9 -17 -14 -35 -13 -17 1 -30 -2 -30 -7 0 -5 -4 -7
-8 -4 -11 7 -82 -58 -82 -75 0 -11 -2 -11 -10 1 -8 12 -10 11 -10 -5 0 -12 -6
-27 -12 -34 -11 -11 -10 -12 2 -6 13 8 13 6 2 -7 -20 -25 -22 -109 -3 -132 14
-17 14 -18 1 -12 -9 4 -8 2 3 -7 9 -8 17 -17 17 -21 0 -18 84 -86 106 -86 13
0 24 -6 24 -12 0 -9 4 -8 10 2 5 8 10 10 10 4 0 -13 31 -14 48 -1 8 6 12 5 12
-4 0 -10 3 -10 12 -1 7 7 20 12 30 12 10 0 18 5 18 10 0 6 7 10 15 10 9 0 18
7 21 15 4 8 9 13 13 11 3 -2 17 12 30 31 12 19 17 32 9 28 -7 -3 -6 0 3 7 13
10 16 28 13 83 -3 84 -5 95 -16 95 -4 0 -8 7 -8 15 0 8 -4 15 -10 15 -5 0 -10
8 -10 17 0 9 -3 13 -6 10 -4 -4 -15 3 -25 15 -11 11 -19 18 -19 13 0 -4 -11 0
-25 9 -14 9 -25 14 -25 10 0 -4 -8 0 -17 7 -15 12 -16 12 -8 -1 5 -10 1 -8
-13 4 -18 16 -22 16 -27 4z"/>
</g>
</svg>
